<svg width="19" height="15" viewBox="0 0 19 15" fill="none" xmlns="http://www.w3.org/2000/svg">
<path d="M17.8125 12.25C17.8125 12.5649 17.6874 12.867 17.4647 13.0897C17.242 13.3124 16.9399 13.4375 16.625 13.4375H2.375C2.06006 13.4375 1.75801 13.3124 1.53531 13.0897C1.31261 12.867 1.1875 12.5649 1.1875 12.25V5.125C1.1875 4.81006 1.31261 4.50801 1.53531 4.28531C1.75801 4.06261 2.06006 3.9375 2.375 3.9375H3.76675C4.71109 3.93698 5.6166 3.56154 6.28425 2.89369L7.26988 1.91044C7.49194 1.6883 7.79297 1.5632 8.10706 1.5625H10.8906C11.2055 1.56257 11.5075 1.68772 11.7301 1.91044L12.7134 2.89369C13.0442 3.22466 13.4371 3.4872 13.8695 3.6663C14.3018 3.8454 14.7653 3.93756 15.2332 3.9375H16.625C16.9399 3.9375 17.242 4.06261 17.4647 4.28531C17.6874 4.50801 17.8125 4.81006 17.8125 5.125V12.25ZM2.375 2.75C1.74511 2.75 1.14102 3.00022 0.695621 3.44562C0.250223 3.89102 0 4.49511 0 5.125L0 12.25C0 12.8799 0.250223 13.484 0.695621 13.9294C1.14102 14.3748 1.74511 14.625 2.375 14.625H16.625C17.2549 14.625 17.859 14.3748 18.3044 13.9294C18.7498 13.484 19 12.8799 19 12.25V5.125C19 4.49511 18.7498 3.89102 18.3044 3.44562C17.859 3.00022 17.2549 2.75 16.625 2.75H15.2332C14.6034 2.74987 13.9994 2.49955 13.5541 2.05413L12.5709 1.07087C12.1256 0.625445 11.5216 0.375135 10.8918 0.375H8.10825C7.47841 0.375135 6.87442 0.625445 6.42912 1.07087L5.44588 2.05413C5.00058 2.49955 4.39659 2.74987 3.76675 2.75H2.375Z" fill="white"/>
</svg>
